<svg xmlns="http://www.w3.org/2000/svg" width="1200" height="675" fill="none" viewBox="0 0 1200 675"><rect width="1200" height="675" fill="#09090B"/><rect width="200" height="400" x="100" y="150" fill="#18181B" stroke="#27272A" stroke-width="2" rx="12"/><text x="200" y="130" fill="#A1A1AA" font-family="Inter, sans-serif" font-size="18" font-weight="600" text-anchor="middle">Your App</text><rect width="200" height="400" x="500" y="150" fill="#18181B" stroke="#27272A" stroke-width="2" rx="12"/><text x="600" y="130" fill="#A1A1AA" font-family="Inter, sans-serif" font-size="18" font-weight="600" text-anchor="middle">Auth Provider</text><rect width="200" height="400" x="900" y="150" fill="#18181B" stroke="#3B82F6" stroke-dasharray="8 4" stroke-width="2" rx="12"/><text x="1000" y="130" fill="#3B82F6" font-family="Inter, sans-serif" font-size="18" font-weight="600" text-anchor="middle">Tokenly API</text><path stroke="#27272A" stroke-width="1" d="M200 150V550"/><path stroke="#27272A" stroke-width="1" d="M600 150V550"/><path stroke="#27272A" stroke-width="1" d="M1000 150V550"/><path stroke="#FFF" stroke-width="2" d="M200 200H590M590 200L580 190M590 200L580 210"/><text x="400" y="190" fill="#FFF" font-family="Inter, sans-serif" font-size="14" text-anchor="middle">1. Auth Redirect</text><path stroke="#FFF" stroke-width="2" d="M600 270H210M210 270L220 260M210 270L220 280"/><text x="400" y="260" fill="#FFF" font-family="Inter, sans-serif" font-size="14" text-anchor="middle">2. Auth Code</text><path stroke="#3B82F6" stroke-width="2" d="M200 340H990M990 340L980 330M990 340L980 350"/><text x="600" y="330" fill="#3B82F6" font-family="Inter, sans-serif" font-size="14" text-anchor="middle">3. Code for JWT</text><path stroke="#3B82F6" stroke-width="2" d="M1000 410H210M210 410L220 400M210 410L220 420"/><text x="600" y="400" fill="#3B82F6" font-family="Inter, sans-serif" font-size="14" text-anchor="middle">4. JWT Issued</text><text x="600" y="60" fill="#FFF" font-family="Inter, sans-serif" font-size="32" font-weight="700" text-anchor="middle">OAuth 2.0 Auth Code Flow</text><text x="600" y="90" fill="#71717A" font-family="Inter, sans-serif" font-size="18" text-anchor="middle">The standard way to implement social login</text></svg>